<svg width="100" height="100" viewBox="0 0 100 100" fill="none" xmlns="http://www.w3.org/2000/svg">
<circle cx="50" cy="50" r="50" fill="#D65252"/>
<mask id="mask0_282_190" style="mask-type:alpha" maskUnits="userSpaceOnUse" x="10" y="12" width="80" height="80">
<rect x="10" y="12" width="80" height="80" fill="#D9D9D9"/>
</mask>
<g mask="url(#mask0_282_190)">
<path d="M50.0001 82C46.3334 82 43.1945 80.6944 40.5834 78.0833C37.9723 75.4722 36.6667 72.3333 36.6667 68.6667C36.6667 65 37.9723 61.8611 40.5834 59.25C43.1945 56.6389 46.3334 55.3333 50.0001 55.3333C53.6667 55.3333 56.8056 56.6389 59.4167 59.25C62.0278 61.8611 63.3334 65 63.3334 68.6667C63.3334 72.3333 62.0278 75.4722 59.4167 78.0833C56.8056 80.6944 53.6667 82 50.0001 82ZM50.0001 75.3333C51.8334 75.3333 53.4028 74.6806 54.7084 73.375C56.014 72.0694 56.6667 70.5 56.6667 68.6667C56.6667 66.8333 56.014 65.2639 54.7084 63.9583C53.4028 62.6528 51.8334 62 50.0001 62C48.1667 62 46.5973 62.6528 45.2917 63.9583C43.9862 65.2639 43.3334 66.8333 43.3334 68.6667C43.3334 70.5 43.9862 72.0694 45.2917 73.375C46.5973 74.6806 48.1667 75.3333 50.0001 75.3333ZM20.1667 40.6667L15.2501 36.0833C19.7501 31.6944 24.9723 28.25 30.9167 25.75C36.8612 23.25 43.2223 22 50.0001 22C56.7778 22 63.1389 23.25 69.0834 25.75C75.0278 28.25 80.2501 31.6944 84.7501 36.0833L79.8334 40.6667C75.889 36.9444 71.3889 34.0139 66.3334 31.875C61.2778 29.7361 55.8334 28.6667 50.0001 28.6667C44.1667 28.6667 38.7223 29.7361 33.6667 31.875C28.6112 34.0139 24.1112 36.9444 20.1667 40.6667ZM67.6667 52.0833C65.3334 49.9722 62.6667 48.3194 59.6667 47.125C56.6667 45.9306 53.4445 45.3333 50.0001 45.3333C46.5556 45.3333 43.3473 45.9306 40.3751 47.125C37.4028 48.3194 34.7223 49.9722 32.3334 52.0833L27.4167 47.5C30.4167 44.7222 33.8473 42.5556 37.7084 41C41.5695 39.4444 45.6667 38.6667 50.0001 38.6667C54.3334 38.6667 58.4167 39.4444 62.2501 41C66.0834 42.5556 69.5001 44.7222 72.5001 47.5L67.6667 52.0833Z" fill="#FFF4F4"/>
</g>
</svg>
