<svg width="97" height="45" viewBox="0 0 97 45" fill="none" xmlns="http://www.w3.org/2000/svg">
<path d="M86.6342 44.8749L88.7611 31.3833H84.1318L84.4238 29.5065H95.8093L95.4965 31.3833H90.8672L88.7403 44.8749H86.6342Z" fill="#978C8C"/>
<path d="M74.1431 45C73.7678 45 73.3855 44.9583 72.9962 44.8749C72.6209 44.8054 72.2803 44.6594 71.9744 44.437C71.6686 44.2007 71.4392 43.867 71.2863 43.4361C71.1334 43.0051 71.1125 42.456 71.2237 41.7887L72.6626 32.697C72.7877 31.8768 73.031 31.2373 73.3924 30.7785C73.7678 30.3059 74.2126 29.9722 74.727 29.7776C75.2414 29.583 75.7905 29.4926 76.3743 29.5065C77.417 29.5204 78.4527 29.5482 79.4814 29.5899C80.524 29.6177 81.5736 29.6594 82.6301 29.715L82.3591 31.4458H76.6246C76.0824 31.4458 75.6445 31.5848 75.3109 31.8629C74.9911 32.127 74.7826 32.5788 74.6853 33.2183L74.2057 36.2628L80.6283 36.4296L80.3572 38.0561L73.8929 38.1604L73.3924 41.33C73.3368 41.7748 73.3646 42.1224 73.4758 42.3726C73.587 42.6228 73.7678 42.7966 74.018 42.8939C74.2682 42.9912 74.5741 43.0399 74.9355 43.0399H80.5449L80.2738 44.7706C79.2868 44.8124 78.2858 44.8541 77.271 44.8958C76.2562 44.9514 75.2136 44.9861 74.1431 45Z" fill="#978C8C"/>
<path d="M56.6524 44.8749L59.0922 29.5065H60.7812L66.4323 41.3091L68.309 29.5065H70.4151L67.9754 44.8749H66.2655L60.6144 33.0515L58.7377 44.8749H56.6524Z" fill="#978C8C"/>
<path d="M43.6806 44.8749L46.1204 29.5065H51.7923C52.3066 29.5065 52.7932 29.5691 53.252 29.6942C53.7246 29.8054 54.1347 30 54.4823 30.2781C54.8437 30.5422 55.1287 30.9106 55.3372 31.3833C55.5458 31.842 55.65 32.4259 55.65 33.1349C55.65 33.3295 55.6361 33.5311 55.6083 33.7396C55.5944 33.9481 55.5666 34.1706 55.5249 34.4069C55.3998 35.1854 55.2052 35.8249 54.941 36.3253C54.6908 36.8258 54.3989 37.222 54.0652 37.5139C53.7455 37.792 53.4188 38.0005 53.0851 38.1395C52.7515 38.2646 52.4526 38.362 52.1885 38.4315L54.232 44.8749H52.1051L50.2492 38.7443C50.0407 38.7443 49.7835 38.7443 49.4776 38.7443C49.1857 38.7303 48.8729 38.7234 48.5393 38.7234C48.2056 38.7095 47.8789 38.7025 47.5592 38.7025C47.2534 38.6886 46.9823 38.6817 46.7459 38.6817L45.7659 44.8749H43.6806ZM47.017 37.0552H50.5411C51.0416 37.0552 51.4795 36.9787 51.8548 36.8258C52.2441 36.6729 52.5708 36.4018 52.8349 36.0126C53.099 35.6094 53.2937 35.0255 53.4188 34.2609C53.4466 34.0941 53.4605 33.9412 53.4605 33.8022C53.4744 33.6632 53.4813 33.5311 53.4813 33.406C53.4813 32.8638 53.3771 32.4537 53.1686 32.1757C52.9739 31.8837 52.7167 31.6822 52.397 31.5709C52.0912 31.4458 51.7506 31.3833 51.3752 31.3833H47.8928L47.017 37.0552Z" fill="#978C8C"/>
<path d="M34.9222 45C34.5469 45 34.1646 44.9583 33.7753 44.8749C33.4 44.8054 33.0594 44.6594 32.7536 44.437C32.4477 44.2007 32.2183 43.867 32.0654 43.4361C31.9125 43.0051 31.8916 42.456 32.0029 41.7887L33.4417 32.697C33.5668 31.8768 33.8101 31.2373 34.1715 30.7785C34.5469 30.3059 34.9917 29.9722 35.5061 29.7776C36.0205 29.583 36.5696 29.4926 37.1535 29.5065C38.1961 29.5204 39.2318 29.5482 40.2605 29.5899C41.3031 29.6177 42.3527 29.6594 43.4093 29.715L43.1382 31.4458H37.4037C36.8615 31.4458 36.4236 31.5848 36.09 31.8629C35.7702 32.127 35.5617 32.5788 35.4644 33.2183L34.9848 36.2628L41.4074 36.4296L41.1363 38.0561L34.672 38.1604L34.1715 41.33C34.1159 41.7748 34.1437 42.1224 34.2549 42.3726C34.3662 42.6228 34.5469 42.7966 34.7971 42.8939C35.0473 42.9912 35.3532 43.0399 35.7146 43.0399H41.324L41.0529 44.7706C40.0659 44.8124 39.0649 44.8541 38.0501 44.8958C37.0353 44.9514 35.9927 44.9861 34.9222 45Z" fill="#978C8C"/>
<path d="M22.7933 44.8749L24.9202 31.3833H20.291L20.5829 29.5065H31.9684L31.6556 31.3833H27.0264L24.8994 44.8749H22.7933Z" fill="#978C8C"/>
<path d="M4.96881 44.8749L7.40857 29.5065H9.09763L14.7487 41.3091L16.6254 29.5065H18.7316L16.2918 44.8749H14.5819L8.93081 33.0515L7.05408 44.8749H4.96881Z" fill="#978C8C"/>
<path d="M0 44.8749L2.43976 29.5065H4.52502L2.08526 44.8749H0Z" fill="#978C8C"/>
<path d="M79.406 0.400391L81.36 16.6488L88.8828 0.400391H96.5685L84.7469 24.0223H75.4003L71.7203 0.400391H79.406Z" fill="#978C8C"/>
<path d="M54.9131 24.2558C52.9592 24.2558 51.244 23.8443 49.7676 23.0213C48.2913 22.1983 47.1515 21.0417 46.3481 19.5514C45.5448 18.0389 45.1432 16.3151 45.1432 14.38C45.1432 11.5551 45.7077 9.06395 46.8366 6.90639C47.9873 4.7266 49.5831 3.03614 51.6239 1.83503C53.6865 0.611677 56.053 0 58.7234 0C60.7208 0 62.4577 0.411492 63.9341 1.23448C65.4321 2.03522 66.5828 3.18072 67.3861 4.67099C68.1894 6.13902 68.5911 7.84059 68.5911 9.77572C68.5911 12.5783 68.0157 15.0806 66.8651 17.2827C65.7361 19.4847 64.1295 21.1974 62.0452 22.4208C59.9827 23.6441 57.6053 24.2558 54.9131 24.2558ZM56.0204 17.3494C57.1494 17.3494 58.1264 17.0491 58.9514 16.4486C59.7981 15.8258 60.4386 15.0139 60.8728 14.013C61.307 12.9898 61.5241 11.8888 61.5241 10.7099C61.5241 9.48656 61.1985 8.54124 60.5472 7.87396C59.9175 7.18443 59.0057 6.83967 57.8116 6.83967C56.6826 6.83967 55.6947 7.13994 54.848 7.7405C54.0013 8.34106 53.35 9.15292 52.894 10.1761C52.4598 11.177 52.2427 12.2669 52.2427 13.4458C52.2427 14.6691 52.5575 15.6256 53.1871 16.3151C53.8384 17.0046 54.7829 17.3494 56.0204 17.3494Z" fill="#978C8C"/>
<path d="M36.6134 0.400391C39.0884 0.400391 40.9664 0.967582 42.2474 2.10197C43.5283 3.23635 44.1688 4.74886 44.1688 6.6395C44.1688 7.19557 44.1254 7.69603 44.0385 8.14089C43.7563 9.74237 43.0832 11.1548 42.0194 12.3781C40.9556 13.5793 39.5769 14.4467 37.8835 14.9806L41.3355 24.0223H33.3893L30.4909 15.5477L29.0254 24.0223H21.7956L25.8664 0.400391H36.6134ZM31.3376 10.6098H34.2034C34.8982 10.6098 35.441 10.4541 35.8318 10.1427C36.2443 9.8091 36.5157 9.29752 36.6459 8.60799C36.6676 8.49678 36.6785 8.3522 36.6785 8.17425C36.6785 7.68491 36.5265 7.30678 36.2226 7.03987C35.9186 6.75071 35.4735 6.60614 34.8873 6.60614H32.0215L31.3376 10.6098Z" fill="#978C8C"/>
<path d="M22.1729 8.5079C21.9124 9.99816 21.3479 11.355 20.4794 12.5783C19.611 13.7794 18.4495 14.7359 16.9948 15.4477C15.5619 16.1594 13.9119 16.5153 12.0447 16.5153H9.17885L7.87619 24.0223H0.646423L4.71724 0.400391H14.8129C17.2662 0.400391 19.1334 0.967582 20.4143 2.10197C21.6953 3.23635 22.3357 4.79335 22.3357 6.77296C22.3357 7.2623 22.2814 7.84061 22.1729 8.5079ZM12.2401 10.6766C13.7165 10.6766 14.5849 9.95368 14.8454 8.5079C14.8888 8.24098 14.9106 8.05192 14.9106 7.94071C14.9106 6.87305 14.2701 6.33922 12.9891 6.33922H10.9374L10.1884 10.6766H12.2401Z" fill="#978C8C"/>
</svg>
