<svg width="75" height="75" viewBox="0 0 75 75" fill="none" xmlns="http://www.w3.org/2000/svg">
<mask id="mask0_31_258" style="mask-type:alpha" maskUnits="userSpaceOnUse" x="0" y="0" width="75" height="75">
<path d="M0 0H75V75H0V0Z" fill="#D9D9D9"/>
</mask>
<g mask="url(#mask0_31_258)">
<path d="M3.75714 64.2855L6.38571 47.657C6.57619 46.4379 6.92857 45.5141 7.44286 44.8855C7.97619 44.2379 8.58571 43.7998 9.27143 43.5712C9.97619 43.3236 10.7 43.2093 11.4429 43.2284C12.9857 43.2474 14.4524 43.2855 15.8429 43.3427C17.2524 43.3808 18.6429 43.4474 20.0143 43.5427L19.6429 45.8855H11.7571C10.9762 45.8855 10.3762 46.076 9.95714 46.457C9.55714 46.8379 9.29047 47.4474 9.15714 48.2855L8.41428 52.8855L17.2429 53.0855L16.8714 55.3141L8.04286 55.4855L6.61428 64.2855H3.75714Z" fill="#C1B8B8"/>
<path d="M17.0129 64.2855L27.4987 43.2284H31.1558L34.7558 64.2855H31.7844L30.8415 58.7712H22.7272L19.9844 64.2855H17.0129ZM23.8415 56.1998H30.5272L28.8987 45.7712L23.8415 56.1998ZM28.2415 41.6855L31.4987 37.7427H34.0129L30.0415 41.6855H28.2415Z" fill="#C1B8B8"/>
<path d="M44.5522 64.457C42.3618 64.457 40.7522 63.8665 39.7237 62.6855C38.7141 61.5046 38.2094 59.8284 38.2094 57.657C38.2094 56.9712 38.2475 56.2474 38.3237 55.4855C38.4189 54.7046 38.5237 53.9617 38.6379 53.257C38.9808 51.0474 39.4951 49.1903 40.1808 47.6855C40.8665 46.1617 41.7903 45.0093 42.9522 44.2284C44.1141 43.4474 45.5618 43.057 47.2951 43.057C48.8189 43.057 50.1141 43.1712 51.1808 43.3998C52.2475 43.6093 53.1332 43.8189 53.8379 44.0284L53.4665 46.257C52.5903 46.0855 51.6665 45.9427 50.6951 45.8284C49.7427 45.6951 48.7522 45.6284 47.7237 45.6284C46.8475 45.6284 46.076 45.7712 45.4094 46.057C44.7427 46.3236 44.1618 46.7712 43.6665 47.3998C43.1713 48.0284 42.7427 48.8665 42.3808 49.9141C42.0379 50.9617 41.7332 52.2665 41.4665 53.8284C41.3713 54.4951 41.2856 55.1712 41.2094 55.857C41.1332 56.5427 41.0951 57.1522 41.0951 57.6855C41.0951 59.1522 41.4094 60.2189 42.0379 60.8855C42.6665 61.5522 43.7522 61.8855 45.2951 61.8855C46.6665 61.8855 47.7618 61.857 48.5808 61.7998C49.4189 61.7236 50.2379 61.6284 51.0379 61.5141L50.6665 63.7427C49.7332 64.0093 48.7237 64.1903 47.6379 64.2855C46.5713 64.3998 45.5427 64.457 44.5522 64.457Z" fill="#C1B8B8"/>
<path d="M54.1478 64.2855L57.4906 43.2284H60.3478L57.0049 64.2855H54.1478Z" fill="#C1B8B8"/>
<path d="M65.4129 64.2855C64.251 64.2855 63.3177 64.0379 62.6129 63.5427C61.9272 63.0284 61.5844 62.1522 61.5844 60.9141C61.5844 60.7236 61.5939 60.5332 61.6129 60.3427C61.632 60.1332 61.651 59.9332 61.6701 59.7427L64.2987 43.2284H67.1558L64.5844 59.3998C64.5653 59.5332 64.5463 59.657 64.5272 59.7712C64.5272 59.8665 64.5272 59.9808 64.5272 60.1141C64.5272 60.7427 64.7082 61.1712 65.0701 61.3998C65.451 61.6093 65.9368 61.7141 66.5272 61.7141H73.7844L73.3558 64.2855H65.4129Z" fill="#C1B8B8"/>
<path d="M28.3286 35.7142H21.9857L17.0714 25.5427L15.2714 35.7142H8.92859L12.5 15.4856H18.8429L23.7286 25.8285L25.5572 15.4856H31.9L28.3286 35.7142Z" fill="#978C8C"/>
<path d="M40.2228 20.5142L39.7942 23.0285H46.0799L45.2228 27.7999H38.9371L38.4228 30.657H45.5656L44.6799 35.7142H31.1942L34.7656 15.4856H48.2514L47.3656 20.5142H40.2228Z" fill="#978C8C"/>
<path d="M66.5275 15.4856L65.6418 20.5142H60.2703L57.5846 35.7142H51.2418L53.9275 20.5142H48.6132L49.4989 15.4856H66.5275Z" fill="#978C8C"/>
</g>
</svg>
