<svg width="70" height="70" viewBox="0 0 70 70" fill="none" xmlns="http://www.w3.org/2000/svg">
<mask id="mask0_11_141" style="mask-type:alpha" maskUnits="userSpaceOnUse" x="0" y="0" width="70" height="70">
<path d="M0 0H70V70H0V0Z" fill="#D9D9D9"/>
</mask>
<g mask="url(#mask0_11_141)">
<path d="M3.50671 60L5.96005 44.48C6.13783 43.3422 6.46671 42.48 6.94671 41.8933C7.44449 41.2889 8.01338 40.88 8.65338 40.6667C9.31116 40.4355 9.98671 40.3289 10.68 40.3467C12.12 40.3644 13.4889 40.4 14.7867 40.4533C16.1023 40.4889 17.4 40.5511 18.68 40.64L18.3334 42.8267H10.9734C10.2445 42.8267 9.68449 43.0044 9.29338 43.36C8.92005 43.7155 8.67116 44.2844 8.54671 45.0667L7.85338 49.36L16.0934 49.5467L15.7467 51.6267L7.50671 51.7867L6.17338 60H3.50671Z" fill="#FB2525"/>
<path d="M15.8788 60L25.6655 40.3467H29.0788L32.4388 60H29.6655L28.7855 54.8533H21.2121L18.6521 60H15.8788ZM22.2521 52.4533H28.4921L26.9721 42.72L22.2521 52.4533ZM26.3588 38.9067L29.3988 35.2267H31.7455L28.0388 38.9067H26.3588Z" fill="#FB2525"/>
<path d="M41.5821 60.16C39.5377 60.16 38.0355 59.6089 37.0755 58.5067C36.1332 57.4044 35.6621 55.84 35.6621 53.8133C35.6621 53.1733 35.6977 52.4978 35.7688 51.7867C35.8577 51.0578 35.9555 50.3644 36.0621 49.7067C36.3821 47.6444 36.8621 45.9111 37.5021 44.5067C38.1421 43.0844 39.0044 42.0089 40.0888 41.28C41.1732 40.5511 42.5244 40.1867 44.1421 40.1867C45.5644 40.1867 46.7732 40.2933 47.7688 40.5067C48.7644 40.7022 49.591 40.8978 50.2488 41.0933L49.9021 43.1733C49.0844 43.0133 48.2221 42.88 47.3155 42.7733C46.4266 42.6489 45.5021 42.5867 44.5421 42.5867C43.7244 42.5867 43.0044 42.72 42.3821 42.9867C41.7599 43.2355 41.2177 43.6533 40.7555 44.24C40.2932 44.8267 39.8932 45.6089 39.5555 46.5867C39.2355 47.5644 38.951 48.7822 38.7021 50.24C38.6132 50.8622 38.5332 51.4933 38.4621 52.1333C38.391 52.7733 38.3555 53.3422 38.3555 53.84C38.3555 55.2089 38.6488 56.2044 39.2355 56.8267C39.8221 57.4489 40.8355 57.76 42.2755 57.76C43.5555 57.76 44.5777 57.7333 45.3421 57.68C46.1244 57.6089 46.8888 57.52 47.6355 57.4133L47.2888 59.4933C46.4177 59.7422 45.4755 59.9111 44.4621 60C43.4666 60.1067 42.5066 60.16 41.5821 60.16Z" fill="#FB2525"/>
<path d="M50.538 60L53.658 40.3467H56.3246L53.2046 60H50.538Z" fill="#FB2525"/>
<path d="M61.0521 60C59.9677 60 59.0966 59.7689 58.4388 59.3067C57.7988 58.8267 57.4788 58.0089 57.4788 56.8533C57.4788 56.6755 57.4877 56.4978 57.5055 56.32C57.5232 56.1244 57.541 55.9378 57.5588 55.76L60.0121 40.3467H62.6788L60.2788 55.44C60.261 55.5644 60.2432 55.68 60.2255 55.7867C60.2255 55.8755 60.2255 55.9822 60.2255 56.1067C60.2255 56.6933 60.3944 57.0933 60.7321 57.3067C61.0877 57.5022 61.541 57.6 62.0921 57.6H68.8655L68.4655 60H61.0521Z" fill="#FB2525"/>
<path d="M26.4401 33.3333H20.5201L15.9334 23.84L14.2534 33.3333H8.33344L11.6668 14.4533H17.5868L22.1468 24.1066L23.8534 14.4533H29.7734L26.4401 33.3333Z" fill="#FB2525"/>
<path d="M37.5414 19.1466L37.1414 21.4933H43.008L42.208 25.9466H36.3414L35.8614 28.6133H42.528L41.7014 33.3333H29.1147L32.448 14.4533H45.0347L44.208 19.1466H37.5414Z" fill="#FB2525"/>
<path d="M62.0924 14.4533L61.2657 19.1466H56.2524L53.7457 33.3333H47.8257L50.3324 19.1466H45.3724L46.1991 14.4533H62.0924Z" fill="#FB2525"/>
</g>
</svg>
