<svg width="25" height="25" viewBox="0 0 25 25" fill="none" xmlns="http://www.w3.org/2000/svg">
<g clip-path="url(#clip0_31_238)">
<path d="M25 12.5767C25 5.62979 19.4031 -0.00146484 12.5 -0.00146484C5.59375 9.76563e-05 -0.00312805 5.62979 -0.00312805 12.5782C-0.00312805 18.8548 4.56875 24.0579 10.5437 25.0017V16.2126H7.37187V12.5782H10.5469V9.80479C10.5469 6.65322 12.4141 4.9126 15.2687 4.9126C16.6375 4.9126 18.0672 5.15791 18.0672 5.15791V8.25166H16.4906C14.9391 8.25166 14.4547 9.22197 14.4547 10.2173V12.5767H17.9203L17.3672 16.211H14.4531V25.0001C20.4281 24.0563 25 18.8532 25 12.5767Z" fill="#978C8C"/>
</g>
<defs>
<clipPath id="clip0_31_238">
<rect width="25" height="25" fill="white"/>
</clipPath>
</defs>
</svg>
