<svg width="25" height="25" viewBox="0 0 25 25" fill="none" xmlns="http://www.w3.org/2000/svg">
<g clip-path="url(#clip0_31_295)">
<path d="M5.70938 2.07497C5.61714 1.95632 5.50071 1.85865 5.36782 1.78845C5.23493 1.71825 5.08863 1.67713 4.93863 1.66782C4.78862 1.65851 4.63836 1.68122 4.49781 1.73445C4.35726 1.78768 4.22965 1.8702 4.12344 1.97653L2.50782 3.59372C1.75313 4.34997 1.475 5.42029 1.80469 6.35935C3.17303 10.2462 5.3989 13.7751 8.31719 16.6843C11.2265 19.6026 14.7554 21.8285 18.6422 23.1968C19.5813 23.5265 20.6516 23.2484 21.4078 22.4937L23.0234 20.8781C23.1298 20.7719 23.2123 20.6443 23.2655 20.5037C23.3188 20.3632 23.3415 20.2129 23.3322 20.0629C23.3228 19.9129 23.2817 19.7666 23.2115 19.6337C23.1413 19.5008 23.0437 19.3844 22.925 19.2922L19.3203 16.489C19.1936 16.3907 19.0461 16.3225 18.8891 16.2895C18.7321 16.2564 18.5697 16.2595 18.4141 16.2984L14.9922 17.1531C14.5354 17.2673 14.0569 17.2612 13.6032 17.1355C13.1495 17.0098 12.736 16.7688 12.4031 16.4359L8.56563 12.5968C8.23246 12.2641 7.99114 11.8507 7.86518 11.397C7.73922 10.9433 7.73292 10.4647 7.84688 10.0078L8.70313 6.58591C8.74205 6.43028 8.74511 6.26784 8.71209 6.11085C8.67907 5.95386 8.61082 5.80643 8.5125 5.67966L5.70938 2.07497ZM2.94375 0.79841C3.21718 0.524894 3.54567 0.312676 3.90741 0.17585C4.26915 0.0390228 4.65585 -0.0192824 5.04185 0.00480552C5.42785 0.0288935 5.80431 0.134823 6.14622 0.315561C6.48814 0.496299 6.7877 0.747709 7.025 1.0531L9.82813 4.65622C10.3422 5.31716 10.5234 6.1781 10.3203 6.9906L9.46563 10.4125C9.42144 10.5897 9.42383 10.7754 9.47256 10.9514C9.52129 11.1274 9.61471 11.2879 9.74375 11.4172L13.5828 15.2562C13.7122 15.3855 13.873 15.4791 14.0493 15.5278C14.2256 15.5766 14.4116 15.5788 14.5891 15.5343L18.0094 14.6797C18.4103 14.5794 18.8288 14.5716 19.2333 14.6569C19.6377 14.7422 20.0174 14.9182 20.3438 15.1718L23.9469 17.975C25.2422 18.9828 25.3609 20.8968 24.2016 22.0547L22.5859 23.6703C21.4297 24.8265 19.7016 25.3343 18.0906 24.7672C13.9675 23.3164 10.2239 20.956 7.1375 17.8609C4.04264 14.775 1.6822 11.0319 0.231253 6.90935C-0.334372 5.29997 0.173441 3.57029 1.32969 2.41404L2.94532 0.79841H2.94375Z" fill="#FFF4F4"/>
</g>
<defs>
<clipPath id="clip0_31_295">
<rect width="25" height="25" fill="white"/>
</clipPath>
</defs>
</svg>
