<svg width="21" height="20" viewBox="0 0 21 20" fill="none" xmlns="http://www.w3.org/2000/svg">
<g clip-path="url(#clip0_11_164)">
<path d="M17.9387 2.90756C17.0218 1.98216 15.9299 1.24849 14.7266 0.749318C13.5233 0.250144 12.2327 -0.00455534 10.93 6.16632e-05C5.47125 6.16632e-05 1.0225 4.44756 1.0175 9.90756C1.0175 11.6563 1.475 13.3576 2.33875 14.8638L0.9375 20.0001L6.1925 18.6226C7.64626 19.4137 9.27491 19.8284 10.93 19.8288H10.935C16.395 19.8288 20.8425 15.3813 20.8475 9.91631C20.8487 8.61387 20.5923 7.32405 20.0928 6.12116C19.5934 4.91827 18.8621 3.8261 17.9387 2.90756ZM10.93 18.1513C9.45375 18.1518 8.00463 17.7546 6.735 17.0013L6.435 16.8213L3.3175 17.6388L4.15 14.5976L3.955 14.2838C3.12976 12.9717 2.69331 11.4526 2.69625 9.90256C2.69625 5.37006 6.3925 1.67256 10.935 1.67256C12.0172 1.67062 13.089 1.8829 14.0888 2.29718C15.0885 2.71145 15.9964 3.31951 16.76 4.08631C17.5263 4.85012 18.1338 5.75809 18.5474 6.75785C18.961 7.75761 19.1726 8.82937 19.17 9.91131C19.165 14.4601 15.4688 18.1513 10.93 18.1513ZM15.4488 11.9838C15.2025 11.8601 13.9862 11.2613 13.7575 11.1763C13.53 11.0951 13.3637 11.0526 13.2013 11.3001C13.035 11.5463 12.56 12.1076 12.4175 12.2688C12.275 12.4351 12.1275 12.4538 11.88 12.3313C11.6337 12.2063 10.835 11.9463 9.89 11.1001C9.1525 10.4438 8.65875 9.63131 8.51125 9.38506C8.36875 9.13756 8.4975 9.00506 8.62125 8.88131C8.73 8.77131 8.8675 8.59131 8.99125 8.44881C9.11625 8.30631 9.1575 8.20131 9.23875 8.03631C9.32 7.86881 9.28125 7.72631 9.22 7.60256C9.1575 7.47881 8.66375 6.25756 8.455 5.76506C8.255 5.27881 8.05125 5.34631 7.89875 5.34006C7.75625 5.33131 7.59 5.33131 7.42375 5.33131C7.2982 5.33443 7.17466 5.36347 7.06087 5.4166C6.94708 5.46973 6.84549 5.54581 6.7625 5.64006C6.535 5.88756 5.89875 6.48631 5.89875 7.70756C5.89875 8.92881 6.78625 10.1026 6.91125 10.2688C7.03375 10.4351 8.65375 12.9338 11.14 14.0088C11.7275 14.2651 12.19 14.4163 12.5513 14.5313C13.145 14.7213 13.6812 14.6926 14.1087 14.6313C14.5837 14.5588 15.5725 14.0313 15.7812 13.4526C15.9862 12.8726 15.9863 12.3776 15.9237 12.2738C15.8625 12.1688 15.6962 12.1076 15.4488 11.9838Z" fill="#FFF4F4"/>
</g>
<defs>
<clipPath id="clip0_11_164">
<rect width="20" height="20" fill="white" transform="translate(0.9375)"/>
</clipPath>
</defs>
</svg>
